<svg xmlns="http://www.w3.org/2000/svg" version="1.1" xmlns:xlink="http://www.w3.org/1999/xlink" width="512" height="512" x="0" y="0" viewBox="0 0 221532 221532" style="enable-background:new 0 0 512 512" xml:space="preserve" fill-rule="evenodd" class=""><g><circle cx="110766" cy="110766" r="110766" fill="#1a91a1" opacity="1" data-original="#1a91a1" class=""></circle><path fill="#ffffff" d="M203473 22179 49739 75080l46829 9341z" opacity="1" data-original="#ffffff" class=""></path><path fill="#5dddd3" d="m49739 75080 46829 9341 31079-18095z" opacity="1" data-original="#5dddd3" class=""></path><path fill="#dce3db" d="m96568 84421 7254 55200 99651-117442z" opacity="1" data-original="#dce3db" class=""></path><path fill="#15bdb2" d="m96568 84421 7254 55200 44539-52490-7688-12527-15232 12716 2207-20994h-1z" opacity="1" data-original="#15bdb2" class=""></path><path fill="#fece0e" d="m203473 22179-90089 75205-9562 42237z" opacity="1" data-original="#fece0e" class=""></path><path fill="#21d0c3" d="m125441 87319-12057 10065-9562 42237 44539-52490-7688-12527-15232 12716z" opacity="1" data-original="#21d0c3"></path><path fill="#ffffff" d="m172828 127002 30645-104823-90089 75205z" opacity="1" data-original="#ffffff" class=""></path><path fill="#5dddd3" d="m125373 87320-12056 10064 59444 29619-32155-52398z" opacity="1" data-original="#5dddd3" class=""></path><path fill="#ffffff" d="m19949 155170 62249-60645 2754 3619-65004 57026zm73008 42446 56388-64812 3969 1808zm-47039-6360 49803-49646 2878 2465-52680 47181z" opacity="1" data-original="#ffffff" class=""></path></g></svg>